<svg width="73" height="16" viewBox="0 0 73 16" fill="none" xmlns="http://www.w3.org/2000/svg">
<path fill-rule="evenodd" clip-rule="evenodd" d="M8.0064 0.322748C12.5694 0.322748 16.0128 3.69262 16.0128 8.00077C16.0128 9.98442 15.2593 11.7334 14.0324 13.0556L16.1629 15.4228H12.5688L11.8301 14.5782C10.7622 15.3145 9.42673 15.6574 8.0064 15.6574C3.46479 15.6574 0 12.3089 0 8.00106C0 3.56417 3.59413 0.322748 8.0064 0.322748ZM8.0064 12.6928C8.60859 12.6928 9.1467 12.5652 9.66345 12.3516L6.58548 8.89663H10.1799L11.8372 10.7951C12.4394 10.0482 12.7195 9.15263 12.7195 8.00077C12.7195 5.42056 10.7616 3.30876 8.00581 3.30876C5.25088 3.30876 3.31469 5.39891 3.31469 8.00077C3.31469 10.6453 5.25088 12.6931 8.0061 12.6931L8.0064 12.6928ZM18.1056 4.67451H21.3553V10.8168C21.3553 12.2674 22.2595 12.8002 23.3357 12.8002C24.4117 12.8002 25.3158 12.2671 25.3158 10.8168V4.67391H28.5658V11.0933C28.5656 14.2502 26.1123 15.7215 23.3357 15.7215C20.5592 15.7215 18.1059 14.2502 18.1059 11.0939V4.67362L18.1056 4.67451ZM30.7871 15.4234H33.9938V4.67391H30.7871V15.4228V15.4234ZM30.4928 1.86974C30.4928 0.813693 31.359 0 32.3795 0C33.4231 0 34.2661 0.813693 34.2661 1.86974C34.2661 2.90354 33.4231 3.71783 32.3795 3.71783C31.359 3.71783 30.4928 2.90354 30.4928 1.86974ZM41.0943 7.46829H36.1285V4.67451H46.6095L40.6321 12.6296H46.3078V15.4234H35.0531L41.0943 7.46829ZM48.1158 15.4234H51.3225V0.557986H48.1155V15.4228L48.1158 15.4234ZM53.1774 10.0274C53.1774 6.61515 55.6313 4.4185 58.924 4.4185C62.2384 4.4185 64.4119 6.84979 64.4119 9.85716C64.4119 9.85716 64.4119 10.4593 64.3475 10.95H56.3848C56.4494 12.2297 57.4171 12.9918 59.2468 12.9918C61.3132 12.9918 62.4751 12.3733 63.0993 11.9467V14.7194C62.0877 15.3593 60.9688 15.7007 59.0747 15.7007C55.437 15.7007 53.1774 13.5041 53.1774 10.1342V10.0274ZM61.1838 8.83315C61.1838 7.87351 60.1939 7.06308 58.924 7.06308C57.5897 7.06308 56.4708 7.85215 56.4061 8.83315H61.1836H61.1838ZM66.8711 7.55373H65.4294V4.67451H66.8711V0.557689H69.9918V4.67391H72.3809V7.55313H69.9918V15.4231H66.8711V7.55313V7.55373Z" fill="#4070D0"/>
</svg>
