<?xml version="1.0" encoding="UTF-8"?>
<svg width="128px" height="128px" viewBox="0 0 128 128" version="1.1" xmlns="http://www.w3.org/2000/svg" xmlns:xlink="http://www.w3.org/1999/xlink">
    <!-- Generator: Sketch 42 (36781) - http://www.bohemiancoding.com/sketch -->
    <title>Artboard 3</title>
    <desc>Created with Sketch.</desc>
    <defs></defs>
    <g id="Page-1" stroke="none" stroke-width="1" fill="none" fill-rule="evenodd">
        <g id="Artboard-3" fill-rule="nonzero" fill="#BEC2C9">
            <g id="logo-medium" transform="translate(0.000000, 9.500000)">
                <g id="svg2">
                    <g id="Group">
                        <path d="M127.57047,20.4456376 L127.57047,20.4456376 L127.484564,20.3597315 L88.9127517,1.11677852 C88.6550336,0.944966443 88.3973154,0.859060403 88.1395973,0.859060403 C87.7959732,0.773154362 87.452349,0.687248322 87.1087248,0.687248322 C85.6483221,0.687248322 84.1879195,1.46040268 83.3288591,2.74899329 L61.1651007,38.8295302 L88.9986577,84.1020134 L127.742282,21.1328859 C127.828188,20.8751678 127.828188,20.6174497 127.57047,20.4456376 Z" id="Shape"></path>
                        <polygon id="Shape" points="48.966443 30.5825503 48.966443 71.6456376 85.390604 89.8577181"></polygon>
                        <path d="M90.8885906,92.6067114 L120.955705,107.640268 C124.821477,109.616107 128,108.241611 128,104.547651 L128,32.3006711 L90.8885906,92.6067114 Z" id="Shape"></path>
                        <path d="M42.609396,20.5315436 L4.98255034,1.71812081 C4.29530201,1.37449664 3.60805369,1.20268456 3.00671141,1.20268456 C1.37449664,1.20268456 0.171812081,2.49127517 0.171812081,4.63892617 L0.171812081,85.9060403 C0.171812081,88.0536913 1.80402685,90.6308725 3.69395973,91.661745 L36.9395973,108.241611 C37.7986577,108.671141 38.5718121,108.842953 39.3449664,108.842953 C41.4067114,108.842953 42.8671141,107.210738 42.8671141,104.547651 L42.8671141,20.8751678 C42.7812081,20.7892617 42.695302,20.6174497 42.609396,20.5315436 Z" id="Shape"></path>
                    </g>
                </g>
            </g>
        </g>
    </g>
</svg>