<?xml version="1.0" encoding="UTF-8"?>
<svg width="128px" height="128px" viewBox="0 0 128 128" version="1.1" xmlns="http://www.w3.org/2000/svg" xmlns:xlink="http://www.w3.org/1999/xlink">
    <!-- Generator: Sketch 42 (36781) - http://www.bohemiancoding.com/sketch -->
    <title>Artboard 3 Copy</title>
    <desc>Created with Sketch.</desc>
    <defs></defs>
    <g id="Page-1" stroke="none" stroke-width="1" fill="none" fill-rule="evenodd">
        <g id="Artboard-3-Copy" fill-rule="nonzero" fill="#BEC2C9">
            <g id="logo-twitter" transform="translate(0.000000, 12.000000)">
                <g id="Layer_1">
                    <path d="M127.627907,12.7255814 C122.939535,14.8093023 117.87907,16.2232558 112.595349,16.8186047 C118.027907,13.544186 122.12093,8.48372093 124.130233,2.30697674 C119.069767,5.28372093 113.488372,7.51627907 107.534884,8.63255814 C102.772093,3.57209302 95.9255814,0.372093023 88.4093023,0.372093023 C73.972093,0.372093023 62.2139535,12.1302326 62.2139535,26.5674419 C62.2139535,28.6511628 62.4372093,30.5860465 62.8837209,32.5209302 C41.1534884,31.4046512 21.8046512,20.9860465 8.93023256,5.13488372 C6.69767442,9.00465116 5.35813953,13.4697674 5.35813953,18.3069767 C5.35813953,27.3860465 9.97209302,35.4232558 17.0418605,40.1116279 C12.7255814,39.9627907 8.70697674,38.772093 5.20930233,36.8372093 L5.20930233,37.1348837 C5.20930233,49.7860465 14.2139535,60.427907 26.1953488,62.8093023 C23.9627907,63.4046512 21.655814,63.7023256 19.2744186,63.7023256 C17.5627907,63.7023256 15.9255814,63.5534884 14.3627907,63.255814 C17.7116279,73.6744186 27.3860465,81.2651163 38.8465116,81.4139535 C29.9162791,88.4093023 18.6046512,92.6511628 6.3255814,92.6511628 C4.24186047,92.6511628 2.15813953,92.5023256 0.0744186047,92.2790698 C11.6837209,99.7209302 25.4511628,104.037209 40.1860465,104.037209 C88.3348837,104.037209 114.67907,64.1488372 114.67907,29.544186 C114.67907,28.427907 114.67907,27.3116279 114.604651,26.1209302 C119.665116,22.6232558 124.130233,18.0093023 127.627907,12.7255814 L127.627907,12.7255814 Z" id="st0"></path>
                </g>
            </g>
        </g>
    </g>
</svg>