<?xml version="1.0" encoding="UTF-8"?>
<svg width="128px" height="128px" viewBox="0 0 128 128" version="1.1" xmlns="http://www.w3.org/2000/svg" xmlns:xlink="http://www.w3.org/1999/xlink">
    <!-- Generator: Sketch 42 (36781) - http://www.bohemiancoding.com/sketch -->
    <title>Artboard 3 Copy 2</title>
    <desc>Created with Sketch.</desc>
    <defs></defs>
    <g id="Page-1" stroke="none" stroke-width="1" fill="none" fill-rule="evenodd">
        <g id="Artboard-3-Copy-2" fill-rule="nonzero" fill="#BEC2C9">
            <g id="logo-dribbble">
                <g id="7935ec95c421cee6d86eb22ecd11ad5d">
                    <path d="M116.95275,28.28225 C114.673,24.89525 112.04675,21.72625 109.16175,18.82875 C106.27075,15.94675 103.08925,13.33025 99.7115,11.041 C96.2995,8.72975 92.64725,6.74925 88.861,5.14 C85.00275,3.50875 80.96375,2.25825 76.8625,1.42225 C72.652,0.5615 68.323,0.12475 63.99725,0.12475 C59.66825,0.12475 55.33925,0.5615 51.135,1.42225 C47.02725,2.258 42.9885,3.5085 39.1335,5.14 C35.34725,6.7495 31.69175,8.72975 28.27975,11.041 C24.902,13.33025 21.72075,15.94675 18.83575,18.82875 C15.94775,21.72625 13.3215,24.89525 11.0385,28.28225 C8.73675,31.68825 6.753,35.3435 5.15,39.136 C3.5155,42.98775 2.265,47.02975 1.41975,51.1405 C0.56475,55.342 0.12825,59.671 0.12825,64 C0.12825,68.32575 0.565,72.6455 1.4195,76.85625 C2.26475,80.96675 3.51525,85.00275 5.14975,88.86075 C6.75275,92.65025 8.7365,96.3025 11.03825,99.70825 C13.32125,103.0925 15.9475,106.2675 18.8355,109.16175 C21.7205,112.0435 24.90175,114.6665 28.2795,116.959 C31.6915,119.2605 35.347,121.241 39.13325,122.8475 C42.98825,124.4755 47.02725,125.723 51.13475,126.565 C55.339,127.43225 59.668,127.875 63.997,127.875 C68.32275,127.875 72.652,127.43225 76.86225,126.565 C80.9635,125.723 85.00275,124.4755 88.86075,122.8475 C92.64725,121.241 96.29925,119.2605 99.71125,116.959 C103.089,114.66625 106.27025,112.0435 109.1615,109.16175 C112.0465,106.2675 114.67275,103.0925 116.9525,99.70825 C119.26675,96.3025 121.24725,92.6505 122.844,88.86075 C124.47825,85.00275 125.72575,80.967 126.568,76.85625 C127.43175,72.6455 127.8715,68.32575 127.8715,64 C127.8715,59.671 127.43175,55.342 126.568,51.1405 C125.72575,47.02975 124.47825,42.98775 122.844,39.136 C121.24725,35.34375 119.26675,31.68825 116.95275,28.28225 Z M63.997,9.45675 C77.8075,9.45675 90.417,14.59325 100.02025,23.06125 C99.886,23.26075 92.117,35.08775 71.53525,42.80375 C62.20675,25.675 51.961,12.083 51.144,10.985 C55.264,9.99325 59.565,9.45675 63.997,9.45675 Z M50.9225,11.04125 L50.935,11.04125 C50.8725,11.0475 50.8195,11.05375 50.75725,11.085 C50.86325,11.0535 50.9225,11.04125 50.9225,11.04125 Z M40.72375,14.662 C41.4505,15.63225 51.537,29.32075 60.97775,46.09425 C34.7885,53.05275 12.058,52.76575 10.62,52.75325 C14.16,35.86125 25.51275,21.845 40.72375,14.662 Z M23.42625,100.4475 C14.737,90.788 9.4505,78.013 9.4505,64 C9.4505,63.4135 9.4785,62.846 9.49425,62.25975 C10.461,62.297 37.4115,62.902 65.497,54.49375 C67.0595,57.5565 68.55375,60.663 69.92275,63.763 C69.2055,63.96875 68.48175,64.181 67.77075,64.418 C38.33475,73.93675 23.4075,100.41925 23.4075,100.41925 C23.4075,100.41925 23.42,100.435 23.42625,100.4475 Z M63.997,118.54325 C51.34675,118.54325 39.732,114.1985 30.48125,106.97225 L30.47175,106.99725 C30.47175,106.99725 29.976,106.623 29.25225,106.0365 C29.64825,106.3735 30.07875,106.66025 30.48125,106.97225 C30.581,106.76 41.0885,84.142 73.27875,72.92 C73.3975,72.8765 73.519,72.84175 73.6405,72.8015 C81.316,92.75 84.48475,109.45475 85.2925,114.2205 C78.746,117.00525 71.55075,118.54325 63.997,118.54325 Z M94.478,109.2365 C93.92275,105.94925 91.01575,89.93675 83.861,70.275 C101.46725,67.45225 116.728,72.2835 117.85075,72.64525 C115.42425,87.84725 106.72575,100.9715 94.478,109.2365 Z M80.5365,61.667 C80.153,60.7315 79.76,59.79575 79.3575,58.84125 C78.2255,56.1805 76.9995,53.533 75.7335,50.93175 C97.2695,42.13625 106.018,29.49525 106.121,29.349 C113.7745,38.64 118.4,50.5075 118.52475,63.43825 C117.7355,63.27625 99.27475,59.309 80.5365,61.667 Z M50.9225,11.04125 C50.9225,11.04125 50.86325,11.05375 50.75725,11.085 C50.81975,11.05375 50.8725,11.0475 50.935,11.04125 L50.9225,11.04125 Z M29.2525,106.0365 C29.6485,106.3735 30.079,106.66025 30.4815,106.97225 L30.472,106.99725 C30.472,106.997 29.976,106.62275 29.2525,106.0365 Z" id="Shape"></path>
                </g>
            </g>
        </g>
    </g>
</svg>