<svg width="24" height="24" viewBox="0 0 24 24" fill="none" xmlns="http://www.w3.org/2000/svg">
<path fill-rule="evenodd" clip-rule="evenodd" d="M15 11.9067V12.0933C15 12.812 14.37 13.4 13.6 13.4H6.6C5.83 13.4 5.2 12.812 5.2 12.0933V11.9067C5.2 11.188 5.83 10.6 6.6 10.6L13.6 10.6C14.37 10.6 15 11.188 15 11.9067ZM19 6.4C19 7.17 18.37 7.8 17.6 7.8L6.4 7.8C5.63 7.8 5 7.17 5 6.4C5 5.63 5.63 5 6.4 5L17.6 5C18.37 5 19 5.63 19 6.4ZM11 17.6C11 18.37 10.37 19 9.6 19H6.4C5.63 19 5 18.37 5 17.6C5 16.83 5.63 16.2 6.4 16.2H9.6C10.37 16.2 11 16.83 11 17.6Z" fill="#19804E"/>
</svg>
