<svg width="24" height="24" viewBox="0 0 24 24" fill="none" xmlns="http://www.w3.org/2000/svg">
<path fill-rule="evenodd" clip-rule="evenodd" d="M10.9375 4.42442C10.9363 4.42516 5.0625 7.91279 5.0625 7.91279C4.64257 8.16822 4.35375 8.37734 4.18182 8.70349C4.00989 9.02964 4 9.37926 4 9.86046V19.2727C4 19.6744 4.32561 20 4.72727 20H9.09091C9.49257 20 9.81818 19.6744 9.81818 19.2727V14.4477C9.81818 14.0149 10.1549 13.6744 10.5909 13.6744H13.4091C13.8451 13.6744 14.1818 14.0149 14.1818 14.4477V19.2727C14.1818 19.6744 14.5074 20 14.9091 20H19.2727C19.6744 20 20 19.6744 20 19.2727V9.86046C20 9.37926 19.9901 9.02964 19.8182 8.70349C19.6463 8.37734 19.3574 8.16822 18.9432 7.91279C18.9413 7.91277 13.0682 4.42442 13.0682 4.42442C12.8099 4.26876 12.4597 4.01028 12.0057 4C11.5403 4.01029 11.1901 4.26876 10.9375 4.42442Z" fill="#A2ABB4"/>
</svg>
