<svg width="91" height="20" viewBox="0 0 91 20" fill="none" xmlns="http://www.w3.org/2000/svg">
<path fill-rule="evenodd" clip-rule="evenodd" d="M10.008 0.404228C15.7117 0.404228 20.016 4.61656 20.016 10.0018C20.016 12.4813 19.0742 14.6676 17.5405 16.3203L20.2036 19.2793H15.711L14.7877 18.2236C13.4528 19.1439 11.7834 19.5726 10.008 19.5726C4.33099 19.5726 0 15.3869 0 10.0021C0 4.45601 4.49266 0.404228 10.008 0.404228ZM10.008 15.8668C10.7607 15.8668 11.4334 15.7073 12.0793 15.4403L8.23185 11.1216H12.7249L14.7966 13.4947C15.5493 12.561 15.8993 11.4416 15.8993 10.0018C15.8993 6.7765 13.452 4.13674 10.0073 4.13674C6.5636 4.13674 4.14336 6.74943 4.14336 10.0018C4.14336 13.3075 6.5636 15.8671 10.0076 15.8671L10.008 15.8668ZM22.632 5.84392H26.6942V13.5218C26.6942 15.335 27.8244 16.001 29.1697 16.001C30.5146 16.001 31.6448 15.3347 31.6448 13.5218V5.84318H35.7073V13.8674C35.7069 17.8135 32.6404 19.6527 29.1697 19.6527C25.6989 19.6527 22.6324 17.8135 22.6324 13.8681V5.84281L22.632 5.84392ZM38.4839 19.28H42.4923V5.84318H38.4839V19.2793V19.28ZM38.1161 2.33797C38.1161 1.01791 39.1988 0.000793457 40.4744 0.000793457C41.7789 0.000793457 42.8327 1.01791 42.8327 2.33797C42.8327 3.63022 41.7789 4.64808 40.4744 4.64808C39.1988 4.64808 38.1161 3.63022 38.1161 2.33797ZM51.3679 9.33616H45.1606V5.84392H58.2618L50.7901 15.7878H57.8847V19.28H43.8164L51.3679 9.33616ZM60.1448 19.28H64.1532V0.698276H60.1444V19.2793L60.1448 19.28ZM66.4718 12.5351C66.4718 8.26973 69.5391 5.52392 73.655 5.52392C77.798 5.52392 80.5149 8.56303 80.5149 12.3222C80.5149 12.3222 80.5149 13.075 80.4344 13.6883H70.4809C70.5618 15.2879 71.7713 16.2405 74.0585 16.2405C76.6415 16.2405 78.0939 15.4674 78.8741 14.9342V18.4001C77.6097 19.1999 76.211 19.6267 73.8434 19.6267C69.2962 19.6267 66.4718 16.8809 66.4718 12.6686V12.5351ZM76.4798 11.0422C76.4798 9.84268 75.2424 8.82964 73.655 8.82964C71.9872 8.82964 70.5885 9.81598 70.5076 11.0422H76.4794H76.4798ZM83.5889 9.44295H81.7868V5.84392H83.5889V0.697905H87.4897V5.84318H90.4762V9.44221H87.4897V19.2796H83.5889V9.44221V9.44295Z" fill="#4257B2"/>
</svg>
