<svg width="24" height="24" viewBox="0 0 24 24" fill="none" xmlns="http://www.w3.org/2000/svg">
<path d="M20.1756 14.7732C19.8708 15.6629 19.421 16.5011 18.8402 17.2524C17.8386 18.5477 16.4889 19.5311 14.949 20.0873C13.409 20.6436 11.7424 20.7497 10.1443 20.3934C8.54622 20.0371 7.08264 19.233 5.92485 18.0752C4.76707 16.9174 3.96296 15.4538 3.60662 13.8557C3.25028 12.2576 3.35644 10.591 3.91269 9.05105C4.46894 7.51108 5.45227 6.16137 6.74761 5.15986C7.49891 4.57898 8.33714 4.12917 9.22684 3.82441C8.78608 4.97989 8.59992 6.22671 8.69327 7.47851C8.84436 9.50459 9.71763 11.4091 11.1543 12.8458C12.5909 14.2824 14.4954 15.1557 16.5215 15.3068C17.7733 15.4001 19.0201 15.2139 20.1756 14.7732Z" stroke="#A2ABB4" stroke-width="2" stroke-linecap="round" stroke-linejoin="round"/>
</svg>
