<svg width="24" height="24" viewBox="0 0 24 24" fill="none" xmlns="http://www.w3.org/2000/svg">
<path d="M20.1756 14.7732C19.8709 15.6629 19.4211 16.5011 18.8402 17.2524C17.8387 18.5477 16.489 19.5311 14.949 20.0873C13.409 20.6436 11.7425 20.7497 10.1444 20.3934C8.54625 20.0371 7.08267 19.233 5.92489 18.0752C4.7671 16.9174 3.96299 15.4538 3.60665 13.8557C3.25031 12.2576 3.35647 10.591 3.91272 9.05105C4.46897 7.51108 5.4523 6.16137 6.74764 5.15986C7.49894 4.57898 8.33717 4.12917 9.22687 3.82441C8.78611 4.97989 8.59995 6.22671 8.6933 7.47851C8.84439 9.50459 9.71766 11.4091 11.1543 12.8458C12.5909 14.2824 14.4955 15.1557 16.5215 15.3068C17.7733 15.4001 19.0202 15.2139 20.1756 14.7732Z" fill="#FFE485" stroke="#F5BE00" stroke-width="2" stroke-linecap="round" stroke-linejoin="round"/>
</svg>
