<svg width="24" height="24" viewBox="0 0 24 24" fill="none" xmlns="http://www.w3.org/2000/svg">
<path fill-rule="evenodd" clip-rule="evenodd" d="M15.0217 13.7811C15.9356 12.7182 16.1226 11.5618 16.1226 10.0606C16.1226 6.71329 13.409 4 10.0613 4C6.7136 4 4 6.71329 4 10.0606C4 13.4079 6.7136 16.1212 10.0613 16.1212C11.5626 16.1212 12.6436 15.9967 13.7067 15.083L14.2576 15.655L18.2284 19.6174C18.6106 19.9988 19.2294 19.9985 19.6112 19.6167V19.6167C19.9959 19.2321 19.993 18.6076 19.6048 18.2266L15.6536 14.3483L15.0217 13.7811ZM5.86502 10.0606C5.86502 7.73893 7.73936 5.8648 10.0613 5.8648C12.3833 5.8648 14.2576 7.73893 14.2576 10.0606C14.2576 12.3823 12.3833 14.2564 10.0613 14.2564C7.73936 14.2564 5.86502 12.3823 5.86502 10.0606Z" fill="#A2ABB4"/>
</svg>
